<?xml version="1.0" encoding="UTF-8" standalone="no"?>
<!DOCTYPE svg PUBLIC "-//W3C//DTD SVG 1.1//EN"
 "http://www.w3.org/Graphics/SVG/1.1/DTD/svg11.dtd">
<!-- Generated by graphviz version 2.47.0 (20210316.0004)
 -->
<!-- Title: dependencies Pages: 1 -->
<svg width="958pt" height="211pt"
 viewBox="0.00 0.00 958.00 211.00" xmlns="http://www.w3.org/2000/svg" xmlns:xlink="http://www.w3.org/1999/xlink">
<g id="graph0" class="graph" transform="scale(1 1) rotate(0) translate(4 207)">
<title>dependencies</title>
<polygon fill="white" stroke="transparent" points="-4,4 -4,-207 954,-207 954,4 -4,4"/>
<text text-anchor="start" x="454.01" y="-42.4" font-family="sans-serif" font-weight="bold" font-size="14.00">Legend</text>
<polygon fill="#ffffb3" stroke="transparent" points="241,-10 241,-30 261,-30 261,-10 241,-10"/>
<text text-anchor="start" x="264.63" y="-15.4" font-family="sans-serif" font-size="14.00"> &#160;Declarations</text>
<polygon fill="#8dd3c7" stroke="transparent" points="354,-10 354,-30 374,-30 374,-10 354,-10"/>
<text text-anchor="start" x="377.73" y="-15.4" font-family="sans-serif" font-size="14.00"> &#160;Module</text>
<polygon fill="#80b1d3" stroke="transparent" points="440,-10 440,-30 460,-30 460,-10 440,-10"/>
<text text-anchor="start" x="463.78" y="-15.4" font-family="sans-serif" font-size="14.00"> &#160;Bootstrap</text>
<polygon fill="#fdb462" stroke="transparent" points="537,-10 537,-30 557,-30 557,-10 537,-10"/>
<text text-anchor="start" x="560.67" y="-15.4" font-family="sans-serif" font-size="14.00"> &#160;Providers</text>
<polygon fill="#fb8072" stroke="transparent" points="633,-10 633,-30 653,-30 653,-10 633,-10"/>
<text text-anchor="start" x="656.73" y="-15.4" font-family="sans-serif" font-size="14.00"> &#160;Exports</text>
<g id="clust1" class="cluster">
<title>cluster_MetadadosModule</title>
<polygon fill="none" stroke="black" stroke-dasharray="1,5" points="8,-70 8,-195 942,-195 942,-70 8,-70"/>
</g>
<g id="clust2" class="cluster">
<title>cluster_MetadadosModule_declarations</title>
<polygon fill="none" stroke="black" points="492,-78 492,-130 934,-130 934,-78 492,-78"/>
</g>
<g id="clust5" class="cluster">
<title>cluster_MetadadosModule_imports</title>
<polygon fill="none" stroke="black" points="302,-78 302,-130 484,-130 484,-78 302,-78"/>
</g>
<g id="clust8" class="cluster">
<title>cluster_MetadadosModule_providers</title>
<polygon fill="none" stroke="black" points="16,-78 16,-130 294,-130 294,-78 16,-78"/>
</g>
<!-- FormularioDinamicoComponent -->
<g id="node1" class="node">
<title>FormularioDinamicoComponent</title>
<polygon fill="#ffffb3" stroke="black" points="925.53,-122 726.47,-122 726.47,-86 925.53,-86 925.53,-122"/>
<text text-anchor="middle" x="826" y="-99.8" font-family="Times,serif" font-size="14.00">FormularioDinamicoComponent</text>
</g>
<!-- MetadadosModule -->
<g id="node3" class="node">
<title>MetadadosModule</title>
<polygon fill="#8dd3c7" stroke="black" points="558.47,-187 555.47,-191 534.47,-191 531.47,-187 437.53,-187 437.53,-151 558.47,-151 558.47,-187"/>
<text text-anchor="middle" x="498" y="-164.8" font-family="Times,serif" font-size="14.00">MetadadosModule</text>
</g>
<!-- FormularioDinamicoComponent&#45;&gt;MetadadosModule -->
<g id="edge1" class="edge">
<title>FormularioDinamicoComponent&#45;&gt;MetadadosModule</title>
<path fill="none" stroke="black" d="M826,-122.11C826,-141.34 826,-169 826,-169 826,-169 568.54,-169 568.54,-169"/>
<polygon fill="black" stroke="black" points="568.54,-165.5 558.54,-169 568.54,-172.5 568.54,-165.5"/>
</g>
<!-- VisualizacaoDinamicaComponent -->
<g id="node2" class="node">
<title>VisualizacaoDinamicaComponent</title>
<polygon fill="#ffffb3" stroke="black" points="708.05,-122 499.95,-122 499.95,-86 708.05,-86 708.05,-122"/>
<text text-anchor="middle" x="604" y="-99.8" font-family="Times,serif" font-size="14.00">VisualizacaoDinamicaComponent</text>
</g>
<!-- VisualizacaoDinamicaComponent&#45;&gt;MetadadosModule -->
<g id="edge2" class="edge">
<title>VisualizacaoDinamicaComponent&#45;&gt;MetadadosModule</title>
<path fill="none" stroke="black" d="M529.23,-122.11C529.23,-122.11 529.23,-140.99 529.23,-140.99"/>
<polygon fill="black" stroke="black" points="525.73,-140.99 529.23,-150.99 532.73,-140.99 525.73,-140.99"/>
</g>
<!-- MetadadosRoutingModule -->
<g id="node4" class="node">
<title>MetadadosRoutingModule</title>
<polygon fill="#8dd3c7" stroke="black" points="476.09,-122 473.09,-126 452.09,-126 449.09,-122 309.91,-122 309.91,-86 476.09,-86 476.09,-122"/>
<text text-anchor="middle" x="393" y="-99.8" font-family="Times,serif" font-size="14.00">MetadadosRoutingModule</text>
</g>
<!-- MetadadosRoutingModule&#45;&gt;MetadadosModule -->
<g id="edge3" class="edge">
<title>MetadadosRoutingModule&#45;&gt;MetadadosModule</title>
<path fill="none" stroke="black" d="M456.78,-122.11C456.78,-122.11 456.78,-140.99 456.78,-140.99"/>
<polygon fill="black" stroke="black" points="453.28,-140.99 456.78,-150.99 460.28,-140.99 453.28,-140.99"/>
</g>
<!-- HttpRequestInterceptorService -->
<g id="node5" class="node">
<title>HttpRequestInterceptorService</title>
<ellipse fill="#fdb462" stroke="black" cx="155" cy="-104" rx="130.75" ry="18"/>
<text text-anchor="middle" x="155" y="-99.8" font-family="Times,serif" font-size="14.00">HttpRequestInterceptorService</text>
</g>
<!-- HttpRequestInterceptorService&#45;&gt;MetadadosModule -->
<g id="edge4" class="edge">
<title>HttpRequestInterceptorService&#45;&gt;MetadadosModule</title>
<path fill="none" stroke="black" d="M155,-122.11C155,-141.34 155,-169 155,-169 155,-169 427.47,-169 427.47,-169"/>
<polygon fill="black" stroke="black" points="427.47,-172.5 437.47,-169 427.47,-165.5 427.47,-172.5"/>
</g>
</g>
</svg>
