<?xml version="1.0" encoding="UTF-8" standalone="no"?>
<!DOCTYPE svg PUBLIC "-//W3C//DTD SVG 1.1//EN"
 "http://www.w3.org/Graphics/SVG/1.1/DTD/svg11.dtd">
<!-- Generated by graphviz version 2.47.0 (20210316.0004)
 -->
<!-- Title: dependencies Pages: 1 -->
<svg width="850pt" height="284pt"
 viewBox="0.00 0.00 850.00 284.00" xmlns="http://www.w3.org/2000/svg" xmlns:xlink="http://www.w3.org/1999/xlink">
<g id="graph0" class="graph" transform="scale(1 1) rotate(0) translate(4 280)">
<title>dependencies</title>
<polygon fill="white" stroke="transparent" points="-4,4 -4,-280 846,-280 846,4 -4,4"/>
<text text-anchor="start" x="400.01" y="-42.4" font-family="sans-serif" font-weight="bold" font-size="14.00">Legend</text>
<polygon fill="#ffffb3" stroke="transparent" points="187,-10 187,-30 207,-30 207,-10 187,-10"/>
<text text-anchor="start" x="210.63" y="-15.4" font-family="sans-serif" font-size="14.00"> &#160;Declarations</text>
<polygon fill="#8dd3c7" stroke="transparent" points="300,-10 300,-30 320,-30 320,-10 300,-10"/>
<text text-anchor="start" x="323.73" y="-15.4" font-family="sans-serif" font-size="14.00"> &#160;Module</text>
<polygon fill="#80b1d3" stroke="transparent" points="386,-10 386,-30 406,-30 406,-10 386,-10"/>
<text text-anchor="start" x="409.78" y="-15.4" font-family="sans-serif" font-size="14.00"> &#160;Bootstrap</text>
<polygon fill="#fdb462" stroke="transparent" points="483,-10 483,-30 503,-30 503,-10 483,-10"/>
<text text-anchor="start" x="506.67" y="-15.4" font-family="sans-serif" font-size="14.00"> &#160;Providers</text>
<polygon fill="#fb8072" stroke="transparent" points="579,-10 579,-30 599,-30 599,-10 579,-10"/>
<text text-anchor="start" x="602.73" y="-15.4" font-family="sans-serif" font-size="14.00"> &#160;Exports</text>
<g id="clust1" class="cluster">
<title>cluster_AppModule</title>
<polygon fill="none" stroke="black" stroke-dasharray="1,5" points="8,-70 8,-268 834,-268 834,-70 8,-70"/>
</g>
<g id="clust2" class="cluster">
<title>cluster_AppModule_declarations</title>
<polygon fill="none" stroke="black" points="704,-78 704,-130 826,-130 826,-78 704,-78"/>
</g>
<g id="clust4" class="cluster">
<title>cluster_AppModule_imports</title>
<polygon fill="none" stroke="black" points="302,-78 302,-130 696,-130 696,-78 302,-78"/>
</g>
<g id="clust6" class="cluster">
<title>cluster_AppModule_bootstrap</title>
<polygon fill="none" stroke="black" points="433,-208 433,-260 557,-260 557,-208 433,-208"/>
</g>
<g id="clust7" class="cluster">
<title>cluster_AppModule_providers</title>
<polygon fill="none" stroke="black" points="16,-78 16,-130 294,-130 294,-78 16,-78"/>
</g>
<!-- AppComponent -->
<g id="node1" class="node">
<title>AppComponent</title>
<polygon fill="#ffffb3" stroke="black" points="817.94,-122 712.06,-122 712.06,-86 817.94,-86 817.94,-122"/>
<text text-anchor="middle" x="765" y="-99.8" font-family="Times,serif" font-size="14.00">AppComponent</text>
</g>
<!-- AppModule -->
<g id="node2" class="node">
<title>AppModule</title>
<polygon fill="#8dd3c7" stroke="black" points="536.66,-187 533.66,-191 512.66,-191 509.66,-187 453.34,-187 453.34,-151 536.66,-151 536.66,-187"/>
<text text-anchor="middle" x="495" y="-164.8" font-family="Times,serif" font-size="14.00">AppModule</text>
</g>
<!-- AppComponent&#45;&gt;AppModule -->
<g id="edge1" class="edge">
<title>AppComponent&#45;&gt;AppModule</title>
<path fill="none" stroke="black" d="M765,-122.28C765,-143.32 765,-175 765,-175 765,-175 546.89,-175 546.89,-175"/>
<polygon fill="black" stroke="black" points="546.89,-171.5 536.89,-175 546.89,-178.5 546.89,-171.5"/>
</g>
<!-- AppComponent  -->
<g id="node6" class="node">
<title>AppComponent </title>
<polygon fill="#80b1d3" stroke="black" points="549.44,-252 440.56,-252 440.56,-216 549.44,-216 549.44,-252"/>
<text text-anchor="middle" x="495" y="-229.8" font-family="Times,serif" font-size="14.00">AppComponent </text>
</g>
<!-- AppModule&#45;&gt;AppComponent  -->
<g id="edge5" class="edge">
<title>AppModule&#45;&gt;AppComponent </title>
<path fill="none" stroke="black" stroke-dasharray="1,5" d="M495,-187.11C495,-187.11 495,-205.99 495,-205.99"/>
<polygon fill="black" stroke="black" points="491.5,-205.99 495,-215.99 498.5,-205.99 491.5,-205.99"/>
</g>
<!-- AppRoutingModule -->
<g id="node3" class="node">
<title>AppRoutingModule</title>
<polygon fill="#8dd3c7" stroke="black" points="688.27,-122 685.27,-126 664.27,-126 661.27,-122 559.73,-122 559.73,-86 688.27,-86 688.27,-122"/>
<text text-anchor="middle" x="624" y="-99.8" font-family="Times,serif" font-size="14.00">AppRoutingModule</text>
</g>
<!-- AppRoutingModule&#45;&gt;AppModule -->
<g id="edge2" class="edge">
<title>AppRoutingModule&#45;&gt;AppModule</title>
<path fill="none" stroke="black" d="M624,-122.02C624,-139.37 624,-163 624,-163 624,-163 546.88,-163 546.88,-163"/>
<polygon fill="black" stroke="black" points="546.88,-159.5 536.88,-163 546.88,-166.5 546.88,-159.5"/>
</g>
<!-- HomeModule -->
<g id="node4" class="node">
<title>HomeModule</title>
<polygon fill="#8dd3c7" stroke="black" points="541.76,-122 538.76,-126 517.76,-126 514.76,-122 448.24,-122 448.24,-86 541.76,-86 541.76,-122"/>
<text text-anchor="middle" x="495" y="-99.8" font-family="Times,serif" font-size="14.00">HomeModule</text>
</g>
<!-- HomeModule&#45;&gt;AppModule -->
<g id="edge3" class="edge">
<title>HomeModule&#45;&gt;AppModule</title>
<path fill="none" stroke="black" d="M495,-122.11C495,-122.11 495,-140.99 495,-140.99"/>
<polygon fill="black" stroke="black" points="491.5,-140.99 495,-150.99 498.5,-140.99 491.5,-140.99"/>
</g>
<!-- MetadadosModule -->
<g id="node5" class="node">
<title>MetadadosModule</title>
<polygon fill="#8dd3c7" stroke="black" points="430.47,-122 427.47,-126 406.47,-126 403.47,-122 309.53,-122 309.53,-86 430.47,-86 430.47,-122"/>
<text text-anchor="middle" x="370" y="-99.8" font-family="Times,serif" font-size="14.00">MetadadosModule</text>
</g>
<!-- MetadadosModule&#45;&gt;AppModule -->
<g id="edge4" class="edge">
<title>MetadadosModule&#45;&gt;AppModule</title>
<path fill="none" stroke="black" d="M370,-122.02C370,-139.37 370,-163 370,-163 370,-163 443.03,-163 443.03,-163"/>
<polygon fill="black" stroke="black" points="443.03,-166.5 453.03,-163 443.03,-159.5 443.03,-166.5"/>
</g>
<!-- HttpRequestInterceptorService -->
<g id="node7" class="node">
<title>HttpRequestInterceptorService</title>
<ellipse fill="#fdb462" stroke="black" cx="155" cy="-104" rx="130.75" ry="18"/>
<text text-anchor="middle" x="155" y="-99.8" font-family="Times,serif" font-size="14.00">HttpRequestInterceptorService</text>
</g>
<!-- HttpRequestInterceptorService&#45;&gt;AppModule -->
<g id="edge6" class="edge">
<title>HttpRequestInterceptorService&#45;&gt;AppModule</title>
<path fill="none" stroke="black" d="M155,-122.28C155,-143.32 155,-175 155,-175 155,-175 443.31,-175 443.31,-175"/>
<polygon fill="black" stroke="black" points="443.31,-178.5 453.31,-175 443.31,-171.5 443.31,-178.5"/>
</g>
</g>
</svg>
